<svg width="21" height="20" viewBox="0 0 21 20" fill="none" xmlns="http://www.w3.org/2000/svg">
<path d="M7.54355 16.9716L7.87896 16.3008L6.53732 15.63L6.20191 16.3008L7.54355 16.9716ZM5.32918 18.0463C5.14394 18.4168 5.29411 18.8673 5.66459 19.0525C6.03507 19.2378 6.48558 19.0876 6.67082 18.7171L5.32918 18.0463ZM6.20191 16.3008L5.32918 18.0463L6.67082 18.7171L7.54355 16.9716L6.20191 16.3008Z" fill="#313131"/>
<path d="M13.184 16.9716L12.8486 16.3008L14.1902 15.6299L14.5256 16.3008L13.184 16.9716ZM15.3984 18.0462C15.5836 18.4167 15.4334 18.8672 15.0629 19.0525C14.6925 19.2377 14.242 19.0875 14.0567 18.717L15.3984 18.0462ZM14.5256 16.3008L15.3984 18.0462L14.0567 18.717L13.184 16.9716L14.5256 16.3008Z" fill="#313131"/>
<path d="M2.85026 11.1055C2.58956 10.4787 2.40712 9.82409 2.30586 9.15633L18.8942 9.15633C18.793 9.82409 18.6105 10.4787 18.3498 11.1055C17.9283 12.1189 17.3105 13.0397 16.5316 13.8154C15.7527 14.591 14.828 15.2063 13.8103 15.6262C12.7925 16.046 11.7017 16.2621 10.6 16.2621C9.4984 16.2621 8.40756 16.046 7.38981 15.6262C6.37206 15.2063 5.44735 14.591 4.66846 13.8154C3.88958 13.0397 3.27176 12.1189 2.85026 11.1055ZM20.3456 8.83642C20.4032 8.23544 19.9068 7.75918 19.3219 7.75918L1.87822 7.75918C1.29327 7.75918 0.79685 8.23544 0.854499 8.83642C0.946827 9.79892 1.18257 10.7441 1.55543 11.6406C2.04746 12.8235 2.76864 13.8984 3.67775 14.8037C4.58685 15.7091 5.66609 16.4272 6.85381 16.9171C8.04153 17.4071 9.3145 17.6592 10.6 17.6592C11.8856 17.6592 13.1586 17.4071 14.3463 16.9171C15.534 16.4272 16.6132 15.7091 17.5223 14.8037C18.4314 13.8984 19.1526 12.8235 19.6447 11.6406C20.0175 10.7441 20.2533 9.79892 20.3456 8.83642Z" fill="#313131" stroke="#313131" stroke-width="0.3"/>
<path d="M7.0002 2.6001V5.21829" stroke="#FDB008" stroke-width="1.5" stroke-linecap="round"/>
<path d="M13.6916 2.6001V5.21829" stroke="#FDB008" stroke-width="1.5" stroke-linecap="round"/>
<path d="M10.4912 1L10.4912 5.36366" stroke="#FDB008" stroke-width="1.5" stroke-linecap="round"/>
</svg>
