<svg width="25" height="24" viewBox="0 0 25 24" fill="none" xmlns="http://www.w3.org/2000/svg">
<path fill-rule="evenodd" clip-rule="evenodd" d="M5.09766 15.0942C5.09766 14.2658 5.76923 13.5942 6.59766 13.5942H7.96924C8.79767 13.5942 9.46924 14.2658 9.46924 15.0942V19.4337C9.46924 20.2621 8.79767 20.9337 7.96924 20.9337H6.59766C5.76923 20.9337 5.09766 20.2621 5.09766 19.4337V15.0942ZM6.59766 14.5942C6.32151 14.5942 6.09766 14.8181 6.09766 15.0942V19.4337C6.09766 19.7099 6.32151 19.9337 6.59766 19.9337H7.96924C8.24538 19.9337 8.46924 19.7099 8.46924 19.4337V15.0942C8.46924 14.8181 8.24538 14.5942 7.96924 14.5942H6.59766Z" fill="white"/>
<path fill-rule="evenodd" clip-rule="evenodd" d="M7.2832 10.5076C7.55935 10.5076 7.7832 10.7314 7.7832 11.0076V13.8721C7.7832 14.1482 7.55935 14.3721 7.2832 14.3721C7.00706 14.3721 6.7832 14.1482 6.7832 13.8721V11.0076C6.7832 10.7314 7.00706 10.5076 7.2832 10.5076Z" fill="white"/>
<path fill-rule="evenodd" clip-rule="evenodd" d="M5.39844 4.65363C4.96308 4.98983 4.68555 5.4891 4.68555 6.19287C4.68555 6.96352 4.93847 8.071 5.42468 8.97481C5.92092 9.89725 6.56496 10.4475 7.28318 10.4475C8.00138 10.4475 8.64538 9.89727 9.14157 8.97482C9.62773 8.07102 9.88062 6.96354 9.88062 6.19287C9.88062 5.48908 9.60311 4.98981 9.1678 4.65362C8.7173 4.3057 8.06017 4.10596 7.28318 4.10596C6.50618 4.10596 5.849 4.3057 5.39844 4.65363ZM4.78724 3.86216C5.45782 3.34431 6.34945 3.10596 7.28318 3.10596C8.21691 3.10596 9.1085 3.34431 9.77903 3.86217C10.4648 4.39175 10.8806 5.18594 10.8806 6.19287C10.8806 7.13293 10.5848 8.40273 10.0222 9.44854C9.46972 10.4757 8.565 11.4475 7.28318 11.4475C6.00136 11.4475 5.09659 10.4757 4.54402 9.44856C3.98142 8.40275 3.68555 7.13294 3.68555 6.19287C3.68555 5.18592 4.10147 4.39173 4.78724 3.86216Z" fill="white"/>
<path fill-rule="evenodd" clip-rule="evenodd" d="M6.83858 4.49012C6.66274 4.8254 6.52832 5.38285 6.52832 6.19287C6.52832 7.0154 6.63622 8.16818 6.84038 9.10524C6.94321 9.57722 7.06418 9.96445 7.1926 10.222C7.2261 10.2892 7.25664 10.3405 7.28287 10.3787C7.3091 10.3405 7.33964 10.2892 7.37313 10.2221C7.50155 9.96445 7.62251 9.57723 7.72533 9.10525C7.92948 8.16819 8.03735 7.0154 8.03735 6.19287C8.03735 5.38284 7.90295 4.82538 7.72713 4.49011C7.55412 4.1602 7.38279 4.10596 7.28288 4.10596C7.18295 4.10596 7.0116 4.16022 6.83858 4.49012ZM5.95298 4.02566C6.23402 3.48979 6.68995 3.10596 7.28288 3.10596C7.87581 3.10596 8.33172 3.48981 8.61274 4.02568C8.89094 4.55618 9.03735 5.29218 9.03735 6.19287C9.03735 7.08106 8.923 8.30557 8.70241 9.31812C8.59287 9.82095 8.45084 10.3016 8.2681 10.6682C8.17711 10.8507 8.0631 11.0316 7.91662 11.173C7.76709 11.3174 7.55364 11.4475 7.28288 11.4475C7.01212 11.4475 6.79866 11.3174 6.64913 11.173C6.50265 11.0316 6.38864 10.8507 6.29765 10.6682C6.1149 10.3016 5.97286 9.82096 5.8633 9.31812C5.64269 8.30558 5.52832 7.08106 5.52832 6.19287C5.52832 5.29217 5.67475 4.55617 5.95298 4.02566Z" fill="white"/>
<path fill-rule="evenodd" clip-rule="evenodd" d="M15.1152 15.0944C15.1152 14.2659 15.7868 13.5944 16.6152 13.5944H17.9868C18.8152 13.5944 19.4868 14.2659 19.4868 15.0944V19.4338C19.4868 20.2623 18.8152 20.9338 17.9868 20.9338H16.6152C15.7868 20.9338 15.1152 20.2623 15.1152 19.4338V15.0944ZM16.6152 14.5944C16.3391 14.5944 16.1152 14.8182 16.1152 15.0944V19.4338C16.1152 19.71 16.3391 19.9338 16.6152 19.9338H17.9868C18.263 19.9338 18.4868 19.71 18.4868 19.4338V15.0944C18.4868 14.8182 18.263 14.5944 17.9868 14.5944H16.6152Z" fill="white"/>
<path fill-rule="evenodd" clip-rule="evenodd" d="M13.291 3.17395H21.3107L20.1719 11.3798H14.8652C14.6156 11.3798 14.4043 11.1957 14.3699 10.9485L13.291 3.17395ZM14.4394 4.17395L15.3006 10.3798H19.3011L20.1624 4.17395H14.4394Z" fill="white"/>
<path fill-rule="evenodd" clip-rule="evenodd" d="M16.1738 5.49719C16.45 5.49719 16.6738 5.72105 16.6738 5.99719V8.25037C16.6738 8.52651 16.45 8.75037 16.1738 8.75037C15.8977 8.75037 15.6738 8.52651 15.6738 8.25037V5.99719C15.6738 5.72105 15.8977 5.49719 16.1738 5.49719Z" fill="white"/>
<path fill-rule="evenodd" clip-rule="evenodd" d="M18.4277 5.49719C18.7039 5.49719 18.9277 5.72105 18.9277 5.99719V8.25037C18.9277 8.52651 18.7039 8.75037 18.4277 8.75037C18.1516 8.75037 17.9277 8.52651 17.9277 8.25037V5.99719C17.9277 5.72105 18.1516 5.49719 18.4277 5.49719Z" fill="white"/>
<path fill-rule="evenodd" clip-rule="evenodd" d="M17.3008 10.9406C17.5769 10.9406 17.8008 11.1644 17.8008 11.4406V13.6937C17.8008 13.9699 17.5769 14.1937 17.3008 14.1937C17.0246 14.1937 16.8008 13.9699 16.8008 13.6937V11.4406C16.8008 11.1644 17.0246 10.9406 17.3008 10.9406Z" fill="white"/>
</svg>
