<svg width="21" height="20" viewBox="0 0 21 20" fill="none" xmlns="http://www.w3.org/2000/svg">
<g clip-path="url(#clip0_135_7271)">
<path d="M10.856 3.73047H9.60601V10.6879L14.1221 12.8343L14.6587 11.7054L10.856 9.89801V3.73047Z" fill="white"/>
<path d="M10.25 0.625C5.07234 0.625 0.875 4.82234 0.875 10C0.875 15.1777 5.07234 19.375 10.25 19.375C15.4277 19.375 19.625 15.1777 19.625 10C19.625 4.82234 15.4277 0.625 10.25 0.625ZM10.25 18.125C5.7627 18.125 2.125 14.4873 2.125 10C2.125 5.5127 5.7627 1.875 10.25 1.875C14.7373 1.875 18.375 5.5127 18.375 10C18.375 14.4873 14.7373 18.125 10.25 18.125Z" fill="white"/>
</g>
<defs>
<clipPath id="clip0_135_7271">
<rect width="20" height="20" fill="white" transform="translate(0.25)"/>
</clipPath>
</defs>
</svg>
