<svg width="22" height="21" viewBox="0 0 22 21" fill="none" xmlns="http://www.w3.org/2000/svg">
<path fill-rule="evenodd" clip-rule="evenodd" d="M20.7015 9.25714L1.29846 9.25714C1.40918 10.1045 1.63161 10.9356 1.96139 11.7284C2.45305 12.9105 3.17368 13.9845 4.08215 14.8892C4.99061 15.7939 6.06912 16.5116 7.25608 17.0012C8.44305 17.4909 9.71524 17.7429 11 17.7429C12.2848 17.7429 13.5569 17.4909 14.7439 17.0012C15.9309 16.5116 17.0094 15.7939 17.9179 14.8892C18.8263 13.9845 19.547 12.9105 20.0386 11.7284C20.3684 10.9356 20.5908 10.1045 20.7015 9.25714ZM21.9956 9.04605C22.0509 8.47009 21.5747 8 20.9937 8L1.00628 8C0.425297 8 -0.0508794 8.47008 0.00436984 9.04605C0.108527 10.1319 0.374475 11.1982 0.795116 12.2095C1.35021 13.5441 2.16383 14.7567 3.18952 15.7782C4.21521 16.7996 5.43287 17.6099 6.773 18.1627C8.11312 18.7155 9.54946 19 11 19C12.4505 19 13.8869 18.7155 15.227 18.1627C16.5671 17.6099 17.7848 16.7996 18.8105 15.7782C19.8362 14.7567 20.6498 13.5441 21.2049 12.2095C21.6255 11.1982 21.8915 10.1319 21.9956 9.04605Z" fill="#B0B0B0"/>
<path d="M7 3.5V6.5" stroke="#B0B0B0" stroke-width="1.2" stroke-linecap="round"/>
<path d="M15 3.5V6.5" stroke="#B0B0B0" stroke-width="1.2" stroke-linecap="round"/>
<path d="M11 1L11 6" stroke="#B0B0B0" stroke-width="1.2" stroke-linecap="round"/>
<path d="M7.53666 18.2683L7.80498 17.7317L6.73167 17.195L6.46334 17.7317L7.53666 18.2683ZM5.46334 19.7317C5.31515 20.0281 5.43528 20.3885 5.73167 20.5367C6.02806 20.6848 6.38846 20.5647 6.53666 20.2683L5.46334 19.7317ZM6.46334 17.7317L5.46334 19.7317L6.53666 20.2683L7.53666 18.2683L6.46334 17.7317Z" fill="#B0B0B0"/>
<path d="M14.4633 18.2683L14.195 17.7317L15.2683 17.195L15.5367 17.7317L14.4633 18.2683ZM16.5367 19.7317C16.6848 20.0281 16.5647 20.3885 16.2683 20.5367C15.9719 20.6848 15.6115 20.5647 15.4633 20.2683L16.5367 19.7317ZM15.5367 17.7317L16.5367 19.7317L15.4633 20.2683L14.4633 18.2683L15.5367 17.7317Z" fill="#B0B0B0"/>
</svg>
